<svg xmlns="http://www.w3.org/2000/svg" xmlns:xlink="http://www.w3.org/1999/xlink" width="2000" zoomAndPan="magnify" viewBox="0 0 1500 1499.999933" height="2000" preserveAspectRatio="xMidYMid meet" version="1.0"><defs><g/><clipPath id="56a13f7f3b"><path d="M 557 442 L 894.605469 442 L 894.605469 811 L 557 811 Z M 557 442 " clip-rule="nonzero"/></clipPath><clipPath id="4861467dc0"><rect x="0" width="600" y="0" height="154"/></clipPath><clipPath id="4563a44ae8"><rect x="0" width="186" y="0" height="154"/></clipPath></defs><rect x="-150" width="1800" fill="#ffffff" y="-149.999993" height="1799.99992" fill-opacity="1"/><rect x="-150" width="1800" fill="#ffffff" y="-149.999993" height="1799.99992" fill-opacity="1"/><g clip-path="url(#56a13f7f3b)"><path fill="#fbbe06" d="M 781.21875 803.800781 C 781.765625 803.394531 782.316406 802.96875 782.875 802.515625 C 788.367188 798.109375 790.808594 793.648438 794.78125 788.1875 C 796.75 785.484375 798.503906 783.507812 800.507812 780.8125 C 808.046875 770.683594 800.371094 767.449219 805.261719 763.703125 C 808.992188 760.847656 815.390625 761.234375 816.464844 755.4375 C 817.515625 749.765625 815.648438 744.042969 813.671875 739.109375 C 812.441406 736.023438 814.117188 733.910156 815.820312 732.527344 C 817.574219 731.105469 819.757812 730.152344 821.417969 728.566406 C 826.21875 723.992188 826.980469 723.113281 832.769531 720.429688 C 834.628906 719.566406 837.316406 717.632812 838.675781 716.410156 C 840.105469 715.121094 841.894531 712.707031 842.136719 710.316406 C 842.46875 706.972656 841.753906 704.050781 841.757812 700.773438 C 841.757812 699.367188 841.800781 698.152344 841.851562 697.074219 C 840.269531 693.398438 838.710938 690.238281 837.476562 688.65625 C 834.144531 684.382812 831.535156 682.429688 830.300781 679.601562 C 829.070312 676.773438 825.738281 667.496094 824.648438 667.207031 C 823.5625 666.917969 821.53125 667.28125 818.417969 670.179688 C 815.300781 673.078125 814.140625 671.410156 811.027344 670.46875 C 807.90625 669.527344 801.457031 670.035156 797.6875 669.09375 C 793.917969 668.148438 782.902344 664.523438 782.253906 663.800781 C 781.601562 663.078125 772.902344 668.511719 771.453125 669.238281 C 770.003906 669.960938 774.859375 668.511719 775.003906 669.816406 C 775.148438 671.121094 777.320312 692.789062 777.320312 695.617188 C 777.320312 698.441406 777.46875 711.5625 779.570312 717.214844 C 781.671875 722.867188 780.582031 726.636719 780.4375 730.765625 C 780.292969 734.898438 779.570312 747.800781 780.730469 760.773438 C 781.886719 773.746094 785.292969 786.570312 784.570312 788.242188 C 783.847656 789.90625 783.484375 791.757812 781.234375 793.710938 C 778.988281 795.667969 778.519531 797.695312 778.40625 798.894531 C 778.332031 799.730469 780.210938 802.167969 781.21875 803.800781 M 752.511719 810.734375 L 752.515625 810.734375 C 756.5625 809.847656 761.152344 811.097656 764.597656 810.527344 C 767.035156 810.125 769.132812 809.65625 771.003906 809.085938 C 765.730469 808.929688 759.019531 808.753906 759.964844 807.734375 C 761.304688 806.285156 764.675781 801.359375 765.652344 801.753906 C 766.632812 802.152344 771.523438 805.453125 771.523438 805.453125 C 771.523438 805.453125 765.363281 801.496094 766.632812 799.074219 C 767.902344 796.648438 769.53125 795.992188 769.785156 793.746094 C 770.039062 791.5 770.292969 786.097656 771.089844 782.765625 C 771.886719 779.433594 772.828125 778.273438 772.757812 772.328125 C 772.683594 766.382812 770.074219 744.714844 769.207031 740.515625 C 768.335938 736.3125 765.652344 732.324219 765.582031 728.847656 C 765.511719 725.367188 764.492188 707.324219 764.492188 707.324219 C 764.492188 707.324219 763.625 727.175781 762.753906 732.542969 C 761.886719 737.90625 758.550781 751.242188 758.550781 763.128906 C 758.550781 775.011719 758.476562 791.171875 756.597656 794.796875 C 754.710938 798.421875 751.234375 799.726562 750.144531 802.628906 C 749.054688 805.527344 750.800781 806.757812 751.597656 808.132812 C 751.957031 808.761719 752.273438 809.792969 752.511719 810.734375 Z M 613.894531 450.753906 C 612.625 451.785156 612.304688 451.746094 611.511719 453.523438 C 610.996094 454.683594 610.613281 455.964844 610.078125 457.230469 C 607.421875 463.457031 600.03125 463.03125 596.632812 469.628906 L 594.605469 473.148438 C 591.410156 478.734375 597.960938 481.855469 589.445312 488.285156 C 587.3125 489.894531 586.148438 491.234375 583.335938 492.476562 C 580.59375 493.683594 578.007812 494.019531 576.460938 496.328125 C 574.363281 499.449219 575.8125 499.878906 572.007812 502.242188 C 569.476562 503.8125 570.039062 506.652344 568.449219 509.40625 C 567.136719 511.675781 565.605469 513.285156 564.0625 515.328125 C 561.613281 518.578125 556.492188 525.460938 558.691406 529.523438 C 560.820312 533.457031 560.640625 532.953125 561.34375 537.578125 C 562.550781 545.566406 562.675781 548.476562 559.96875 555.382812 C 555.75 566.136719 558.207031 560.972656 559.335938 566.625 C 559.777344 568.835938 558.898438 569.207031 559.230469 571.472656 C 559.851562 575.792969 561.648438 574.710938 564.460938 576.585938 C 566.769531 578.121094 567.347656 580.585938 569.285156 582.511719 C 571.839844 585.050781 574.53125 587.605469 576.328125 590.957031 C 577.078125 592.347656 577.183594 593.375 578.003906 594.859375 C 580.632812 599.617188 585.003906 601.394531 589.304688 604.597656 C 597.566406 610.765625 599.777344 615.390625 610.761719 611.34375 C 613.203125 610.445312 616.195312 609.683594 619.566406 609.445312 C 627.628906 608.882812 629.308594 612.492188 637.902344 609.0625 C 645.988281 605.828125 662.402344 597.230469 667.695312 608.054688 C 668.84375 610.414062 669.539062 613.234375 672.753906 613.433594 C 680.246094 613.894531 682.207031 609.445312 688.769531 616.035156 C 692.566406 619.847656 690.675781 628.175781 689.539062 633.289062 C 689.207031 634.761719 689.070312 636.050781 688.4375 637.34375 C 687.800781 638.632812 686.839844 639.566406 687.160156 641.40625 C 687.75 644.746094 694.148438 651.222656 696.136719 653.582031 C 700.964844 659.3125 700.847656 660.074219 703.851562 666.898438 C 704.933594 669.355469 706.335938 671.203125 707.421875 673.65625 C 709.449219 678.253906 706.574219 678.445312 707.59375 682.628906 C 709.15625 689.027344 713.433594 691.019531 708 698.226562 C 702.214844 705.890625 697.675781 720.222656 703.339844 730.203125 C 706.929688 736.535156 712.0625 743.921875 713.335938 751.601562 C 713.871094 754.839844 714.042969 757.757812 714.769531 760.882812 C 716.140625 766.75 716.652344 772.65625 719.699219 777.078125 C 723.402344 782.453125 725.054688 782.148438 728.140625 789.675781 C 729.074219 791.953125 732.710938 798.367188 732.90625 800.304688 C 733.257812 803.828125 728.632812 804.316406 733.726562 810.121094 C 735.519531 808.179688 737.804688 806.175781 738.183594 806.613281 C 738.691406 807.1875 744.128906 809.652344 744.128906 809.652344 C 744.128906 809.652344 737.824219 805.453125 738.402344 803.855469 C 738.980469 802.261719 741.519531 799.578125 742.605469 795.519531 C 743.695312 791.464844 745.070312 785.15625 745.941406 782.039062 C 746.808594 778.925781 747.242188 775.808594 747.898438 770.515625 C 748.546875 765.226562 750.507812 748.484375 749.632812 740.660156 C 748.765625 732.832031 748.332031 730.222656 748.257812 721.527344 C 748.183594 712.828125 746.738281 689.855469 744.417969 682.027344 C 742.097656 674.203125 741.664062 663.1875 739.777344 656.808594 C 737.894531 650.429688 730.359375 637.09375 730.210938 630.863281 C 730.066406 624.628906 734.34375 611.875 735.648438 608.246094 C 736.953125 604.628906 728.46875 599.988281 725.644531 595.132812 C 722.816406 590.277344 707.746094 579.988281 690.058594 556.070312 C 672.375 532.152344 661.9375 517.949219 659.765625 515.484375 C 657.589844 513.019531 652.519531 511.933594 651.792969 512.367188 C 651.070312 512.804688 643.097656 515.992188 633.316406 517.148438 C 623.53125 518.3125 622.441406 517.148438 620.628906 518.164062 C 618.816406 519.179688 619.179688 520.558594 616.859375 521.355469 C 614.542969 522.152344 612.367188 522.585938 610.34375 521.425781 C 610.34375 521.425781 607.371094 523.816406 606.578125 521.425781 C 605.777344 519.035156 605.5625 515.484375 611.433594 510.046875 C 617.300781 504.613281 624.40625 499.464844 626.722656 494.539062 C 629.039062 489.609375 629.984375 486.132812 631.503906 485.191406 C 633.023438 484.246094 636.648438 485.261719 637.160156 484.175781 C 637.667969 483.085938 644.550781 467.652344 645.785156 466.636719 C 647.015625 465.625 650.421875 466.421875 650.421875 466.421875 C 650.421875 466.421875 648.828125 466.421875 649.480469 469.246094 C 650.132812 472.074219 649.773438 471.855469 648.828125 474.246094 C 647.882812 476.636719 647.449219 479.828125 650.566406 480.988281 C 653.683594 482.148438 655.859375 480.40625 658.25 481.566406 C 660.640625 482.726562 662.59375 484.394531 662.59375 484.394531 C 662.59375 484.394531 658.394531 483.523438 657.160156 488.453125 C 657.160156 488.453125 659.261719 484.46875 664.917969 485.046875 C 670.570312 485.625 672.234375 485.84375 671.511719 487.074219 C 670.785156 488.308594 668.394531 493.527344 666.003906 495.050781 C 666.003906 495.050781 670.207031 493.308594 670.785156 491.785156 C 670.785156 491.785156 673.109375 494.757812 677.019531 498.816406 C 680.933594 502.875 698.90625 522.730469 716.878906 535.921875 C 734.851562 549.113281 753.410156 556.9375 764.859375 563.605469 C 776.308594 570.277344 788.773438 575.058594 794.863281 579.261719 C 800.949219 583.464844 807.328125 588.683594 822.984375 591.871094 C 838.636719 595.058594 840.664062 593.757812 853.277344 602.164062 C 863.433594 608.933594 870.671875 613.164062 874.542969 617.660156 C 874.8125 617.371094 875.078125 617.078125 875.335938 616.773438 C 881.929688 609.0625 882.335938 607 886.980469 599.417969 C 889.265625 595.683594 892.59375 590.152344 893.496094 586.046875 C 893.933594 584.066406 894.859375 579.105469 893.84375 577.082031 C 893.753906 577.039062 893.597656 576.902344 893.550781 577 C 893.507812 577.09375 893.324219 576.9375 893.261719 576.9375 L 892.683594 576.929688 C 891.226562 577.144531 890.605469 578.011719 889.230469 578.609375 C 884.871094 580.496094 877.316406 581.183594 872.550781 582.191406 C 864.605469 583.867188 862.597656 586.328125 857.15625 580.769531 C 855.742188 579.324219 855.292969 578.695312 853.652344 577.574219 C 855.230469 575.59375 856.609375 574.269531 853.789062 571.425781 C 844.289062 561.871094 840.984375 561.425781 838.265625 558.738281 C 834.53125 555.042969 835.429688 549.699219 832.308594 546.011719 C 828.28125 541.238281 826.0625 542.886719 825.496094 534.21875 C 824.9375 525.679688 824.851562 526.910156 819.585938 521.378906 C 817.519531 519.210938 817.992188 517.96875 817.03125 514.820312 C 815.816406 510.816406 812.984375 505.675781 811.117188 502.003906 C 809.023438 497.878906 806.566406 494.359375 804.046875 490.398438 C 802.828125 488.484375 801.101562 485.976562 802.890625 483.910156 C 805.75 485.535156 806.339844 489.09375 808.054688 491.585938 C 809.15625 493.191406 809.011719 492.660156 810.726562 493.300781 C 810.664062 491 809.207031 487.796875 808.710938 485.390625 C 806.671875 475.597656 808.527344 478.226562 802.480469 476.472656 C 796.355469 474.695312 797.328125 473.628906 790.429688 476.226562 C 782.871094 479.074219 780.050781 476.082031 773.507812 474.820312 C 767.570312 473.675781 761.792969 472.96875 757.347656 470.339844 C 755.03125 468.96875 753.761719 467.160156 750.285156 466.996094 C 747.523438 466.867188 743.585938 468.507812 742.257812 469.796875 C 738.394531 473.5625 743.890625 477.527344 738.214844 480.457031 C 736.703125 481.234375 735.871094 480.972656 734.269531 480.328125 C 731.574219 479.246094 730.285156 477.804688 727.324219 476.921875 C 724.195312 475.988281 721.359375 476.199219 719.210938 474.3125 C 714.707031 470.347656 721.234375 469.214844 705.710938 467.140625 C 701.601562 466.589844 700.742188 466.472656 697.601562 464.9375 C 686.109375 459.328125 693.578125 458.867188 695.4375 454.746094 C 697.085938 451.089844 693.769531 450.914062 693.128906 448.011719 C 694.289062 446.273438 694.996094 447.039062 695.429688 444.363281 C 691.042969 444.367188 689.554688 441.515625 685.421875 443.550781 C 682.242188 445.125 678.234375 443.953125 674.167969 444.605469 C 668.164062 445.566406 667.515625 444.550781 662.839844 444.765625 C 651.042969 445.308594 644.066406 449.070312 634.28125 454.007812 C 631.527344 455.398438 626.128906 454.621094 623.089844 454.351562 C 620.777344 454.152344 619.253906 454.453125 617.605469 453.5 C 615.9375 452.539062 616.585938 451.894531 613.894531 450.753906 Z M 613.894531 450.753906 " fill-opacity="1" fill-rule="evenodd"/></g><g transform="matrix(1, 0, 0, 1, 265, 852)"><g clip-path="url(#4861467dc0)"><g fill="#fbbe06" fill-opacity="1"><g transform="translate(1.971952, 123.996596)"><g><path d="M 48.953125 0 L 27.15625 0 L 27.15625 -73.421875 L 0.96875 -73.421875 L 0.96875 -92.90625 L 75.125 -92.90625 L 75.125 -73.421875 L 48.953125 -73.421875 Z M 48.953125 0 "/></g></g></g><g fill="#fbbe06" fill-opacity="1"><g transform="translate(84.133338, 123.996596)"><g><path d="M 50.296875 2.0625 C 42.335938 2.0625 35.4375 0.765625 29.59375 -1.828125 C 23.75 -4.421875 18.9375 -7.96875 15.15625 -12.46875 C 11.382812 -16.976562 8.5625 -22.15625 6.6875 -28 C 4.820312 -33.84375 3.890625 -40.015625 3.890625 -46.515625 C 3.890625 -53.003906 4.820312 -59.148438 6.6875 -64.953125 C 8.5625 -70.765625 11.382812 -75.921875 15.15625 -80.421875 C 18.9375 -84.929688 23.75 -88.460938 29.59375 -91.015625 C 35.4375 -93.578125 42.335938 -94.859375 50.296875 -94.859375 C 58.160156 -94.859375 64.992188 -93.578125 70.796875 -91.015625 C 76.609375 -88.460938 81.421875 -84.929688 85.234375 -80.421875 C 89.046875 -75.921875 91.882812 -70.765625 93.75 -64.953125 C 95.625 -59.148438 96.5625 -53.003906 96.5625 -46.515625 C 96.5625 -40.015625 95.625 -33.84375 93.75 -28 C 91.882812 -22.15625 89.046875 -16.976562 85.234375 -12.46875 C 81.421875 -7.96875 76.609375 -4.421875 70.796875 -1.828125 C 64.992188 0.765625 58.160156 2.0625 50.296875 2.0625 Z M 50.296875 -17.40625 C 57.597656 -17.40625 63.296875 -20.039062 67.390625 -25.3125 C 71.492188 -30.59375 73.546875 -37.660156 73.546875 -46.515625 C 73.546875 -55.285156 71.492188 -62.285156 67.390625 -67.515625 C 63.296875 -72.753906 57.597656 -75.375 50.296875 -75.375 C 42.984375 -75.375 37.253906 -72.753906 33.109375 -67.515625 C 28.972656 -62.285156 26.90625 -55.285156 26.90625 -46.515625 C 26.90625 -37.660156 28.972656 -30.59375 33.109375 -25.3125 C 37.253906 -20.039062 42.984375 -17.40625 50.296875 -17.40625 Z M 50.296875 -17.40625 "/></g></g></g><g fill="#fbbe06" fill-opacity="1"><g transform="translate(190.759708, 123.996596)"><g><path d="M 29.109375 0 L 7.3125 0 L 7.3125 -92.90625 L 29.46875 -92.90625 L 65.140625 -36.53125 L 65.140625 -92.90625 L 86.9375 -92.90625 L 86.9375 0 L 64.78125 0 L 29.109375 -56.75 Z M 29.109375 0 "/></g></g></g><g fill="#fbbe06" fill-opacity="1"><g transform="translate(291.056849, 123.996596)"><g><path d="M 48.953125 0 L 27.15625 0 L 27.15625 -73.421875 L 0.96875 -73.421875 L 0.96875 -92.90625 L 75.125 -92.90625 L 75.125 -73.421875 L 48.953125 -73.421875 Z M 48.953125 0 "/></g></g></g><g fill="#fbbe06" fill-opacity="1"><g transform="translate(373.218235, 123.996596)"><g><path d="M 29.109375 0 L 7.3125 0 L 7.3125 -92.90625 L 29.109375 -92.90625 Z M 29.109375 0 "/></g></g></g><g fill="#fbbe06" fill-opacity="1"><g transform="translate(415.82179, 123.996596)"><g><path d="M 29.109375 0 L 7.3125 0 L 7.3125 -92.90625 L 29.46875 -92.90625 L 65.140625 -36.53125 L 65.140625 -92.90625 L 86.9375 -92.90625 L 86.9375 0 L 64.78125 0 L 29.109375 -56.75 Z M 29.109375 0 "/></g></g></g><g fill="#fbbe06" fill-opacity="1"><g transform="translate(516.118931, 123.996596)"><g><path d="M 70.75 0 L 7.3125 0 L 7.3125 -92.90625 L 70.75 -92.90625 L 70.75 -73.421875 L 29.109375 -73.421875 L 29.109375 -56.140625 L 66.734375 -56.140625 L 66.734375 -36.765625 L 29.109375 -36.765625 L 29.109375 -19.484375 L 70.75 -19.484375 Z M 70.75 0 "/></g></g></g></g></g><g transform="matrix(1, 0, 0, 1, 876, 852)"><g clip-path="url(#4563a44ae8)"><g fill="#00bf63" fill-opacity="1"><g transform="translate(0.481247, 123.996596)"><g><path d="M 41.28125 1.21875 C 35.4375 1.21875 29.957031 0.285156 24.84375 -1.578125 C 19.726562 -3.453125 15.441406 -6.414062 11.984375 -10.46875 C 8.535156 -14.53125 6.285156 -19.804688 5.234375 -26.296875 L 13.765625 -26.296875 C 14.648438 -21.265625 16.535156 -17.285156 19.421875 -14.359375 C 22.304688 -11.441406 25.734375 -9.375 29.703125 -8.15625 C 33.679688 -6.9375 37.742188 -6.328125 41.890625 -6.328125 C 49.273438 -6.328125 54.992188 -8.03125 59.046875 -11.4375 C 63.109375 -14.851562 65.140625 -19.566406 65.140625 -25.578125 C 65.140625 -29.066406 64.410156 -31.925781 62.953125 -34.15625 C 61.492188 -36.382812 59.503906 -38.1875 56.984375 -39.5625 C 54.472656 -40.945312 51.648438 -42.066406 48.515625 -42.921875 C 45.390625 -43.773438 42.125 -44.566406 38.71875 -45.296875 C 35.0625 -46.109375 31.46875 -47 27.9375 -47.96875 C 24.40625 -48.945312 21.195312 -50.265625 18.3125 -51.921875 C 15.4375 -53.585938 13.144531 -55.84375 11.4375 -58.6875 C 9.738281 -61.53125 8.890625 -65.1875 8.890625 -69.65625 C 8.890625 -74.6875 10.207031 -79.023438 12.84375 -82.671875 C 15.476562 -86.328125 19.066406 -89.148438 23.609375 -91.140625 C 28.160156 -93.128906 33.320312 -94.125 39.09375 -94.125 C 47.207031 -94.125 54.101562 -92.113281 59.78125 -88.09375 C 65.46875 -84.070312 69.039062 -77.519531 70.5 -68.4375 L 62.46875 -68.4375 C 61.164062 -75.09375 58.421875 -79.78125 54.234375 -82.5 C 50.054688 -85.21875 44.96875 -86.578125 38.96875 -86.578125 C 32.632812 -86.578125 27.4375 -85.113281 23.375 -82.1875 C 19.320312 -79.269531 17.296875 -75.296875 17.296875 -70.265625 C 17.296875 -66.203125 18.472656 -63.050781 20.828125 -60.8125 C 23.179688 -58.582031 26.242188 -56.898438 30.015625 -55.765625 C 33.785156 -54.628906 37.785156 -53.578125 42.015625 -52.609375 C 45.828125 -51.796875 49.578125 -50.859375 53.265625 -49.796875 C 56.960938 -48.742188 60.351562 -47.285156 63.4375 -45.421875 C 66.519531 -43.554688 68.972656 -41.078125 70.796875 -37.984375 C 72.628906 -34.898438 73.546875 -30.882812 73.546875 -25.9375 C 73.546875 -17.820312 70.804688 -11.265625 65.328125 -6.265625 C 59.847656 -1.273438 51.832031 1.21875 41.28125 1.21875 Z M 41.28125 1.21875 "/></g></g></g><g fill="#00bf63" fill-opacity="1"><g transform="translate(88.48614, 123.996596)"><g><path d="M 18.015625 0 L 9.625 0 L 9.625 -92.90625 L 22.53125 -92.90625 L 67.703125 -7.671875 L 67.703125 -92.90625 L 75.984375 -92.90625 L 75.984375 0 L 63.078125 0 L 18.015625 -84.875 Z M 18.015625 0 "/></g></g></g></g></g><g fill="#010101" fill-opacity="1"><g transform="translate(179.031068, 1046.092738)"><g><path d="M 14.0625 -4.796875 C 14.875 -4.796875 15.660156 -4.914062 16.421875 -5.15625 C 17.179688 -5.40625 17.738281 -5.640625 18.09375 -5.859375 L 18.625 -6.234375 L 20.890625 -1.71875 C 20.816406 -1.664062 20.710938 -1.59375 20.578125 -1.5 C 20.441406 -1.40625 20.132812 -1.226562 19.65625 -0.96875 C 19.175781 -0.71875 18.664062 -0.5 18.125 -0.3125 C 17.582031 -0.125 16.867188 0.0390625 15.984375 0.1875 C 15.097656 0.34375 14.1875 0.421875 13.25 0.421875 C 11.082031 0.421875 9.03125 -0.109375 7.09375 -1.171875 C 5.164062 -2.234375 3.609375 -3.691406 2.421875 -5.546875 C 1.234375 -7.410156 0.640625 -9.421875 0.640625 -11.578125 C 0.640625 -13.210938 0.988281 -14.78125 1.6875 -16.28125 C 2.382812 -17.789062 3.3125 -19.082031 4.46875 -20.15625 C 5.625 -21.226562 6.972656 -22.082031 8.515625 -22.71875 C 10.054688 -23.351562 11.632812 -23.671875 13.25 -23.671875 C 14.75 -23.671875 16.132812 -23.492188 17.40625 -23.140625 C 18.675781 -22.785156 19.570312 -22.429688 20.09375 -22.078125 L 20.890625 -21.53125 L 18.625 -17.03125 C 18.5 -17.132812 18.300781 -17.265625 18.03125 -17.421875 C 17.769531 -17.585938 17.242188 -17.800781 16.453125 -18.0625 C 15.671875 -18.332031 14.875 -18.46875 14.0625 -18.46875 C 12.789062 -18.46875 11.644531 -18.257812 10.625 -17.84375 C 9.613281 -17.425781 8.8125 -16.878906 8.21875 -16.203125 C 7.625 -15.523438 7.171875 -14.796875 6.859375 -14.015625 C 6.554688 -13.242188 6.40625 -12.453125 6.40625 -11.640625 C 6.40625 -9.867188 7.066406 -8.285156 8.390625 -6.890625 C 9.710938 -5.492188 11.601562 -4.796875 14.0625 -4.796875 Z M 14.0625 -4.796875 "/></g></g></g><g fill="#010101" fill-opacity="1"><g transform="translate(222.807897, 1046.092738)"><g><path d="M 0.640625 -11.640625 C 0.640625 -15.003906 1.785156 -17.847656 4.078125 -20.171875 C 6.378906 -22.503906 9.144531 -23.671875 12.375 -23.671875 C 15.625 -23.671875 18.382812 -22.507812 20.65625 -20.1875 C 22.9375 -17.875 24.078125 -15.023438 24.078125 -11.640625 C 24.078125 -8.242188 22.957031 -5.382812 20.71875 -3.0625 C 18.476562 -0.738281 15.695312 0.421875 12.375 0.421875 C 8.96875 0.421875 6.160156 -0.726562 3.953125 -3.03125 C 1.742188 -5.332031 0.640625 -8.203125 0.640625 -11.640625 Z M 6.375 -11.640625 C 6.375 -10.421875 6.5625 -9.304688 6.9375 -8.296875 C 7.3125 -7.296875 7.96875 -6.445312 8.90625 -5.75 C 9.84375 -5.050781 11 -4.703125 12.375 -4.703125 C 14.34375 -4.703125 15.828125 -5.378906 16.828125 -6.734375 C 17.835938 -8.085938 18.34375 -9.722656 18.34375 -11.640625 C 18.34375 -13.535156 17.832031 -15.164062 16.8125 -16.53125 C 15.789062 -17.894531 14.3125 -18.578125 12.375 -18.578125 C 10.457031 -18.578125 8.976562 -17.894531 7.9375 -16.53125 C 6.894531 -15.164062 6.375 -13.535156 6.375 -11.640625 Z M 6.375 -11.640625 "/></g></g></g><g fill="#010101" fill-opacity="1"><g transform="translate(270.079488, 1046.092738)"><g><path d="M 0.21875 -18.609375 L 0.21875 -23.25 L 16.578125 -23.25 L 16.578125 -18.609375 L 11.046875 -18.609375 L 11.046875 0 L 5.75 0 L 5.75 -18.609375 Z M 0.21875 -18.609375 "/></g></g></g><g fill="#010101" fill-opacity="1"><g transform="translate(309.431493, 1046.092738)"><g><path d="M 6.984375 -23.25 L 6.984375 0 L 1.6875 0 L 1.6875 -23.25 Z M 6.984375 -23.25 "/></g></g></g><g fill="#010101" fill-opacity="1"><g transform="translate(340.666629, 1046.092738)"><g><path d="M 10.265625 -23.671875 C 11.523438 -23.671875 12.753906 -23.488281 13.953125 -23.125 C 15.148438 -22.757812 16.039062 -22.398438 16.625 -22.046875 L 17.46875 -21.484375 L 15.328125 -17.25 C 15.160156 -17.363281 14.925781 -17.507812 14.625 -17.6875 C 14.320312 -17.863281 13.757812 -18.101562 12.9375 -18.40625 C 12.113281 -18.707031 11.34375 -18.859375 10.625 -18.859375 C 9.738281 -18.859375 9.054688 -18.671875 8.578125 -18.296875 C 8.097656 -17.921875 7.859375 -17.410156 7.859375 -16.765625 C 7.859375 -16.453125 7.972656 -16.15625 8.203125 -15.875 C 8.429688 -15.601562 8.816406 -15.3125 9.359375 -15 C 9.898438 -14.695312 10.378906 -14.453125 10.796875 -14.265625 C 11.210938 -14.078125 11.851562 -13.796875 12.71875 -13.421875 C 14.21875 -12.773438 15.5 -11.898438 16.5625 -10.796875 C 17.625 -9.703125 18.15625 -8.460938 18.15625 -7.078125 C 18.15625 -5.742188 17.914062 -4.578125 17.4375 -3.578125 C 16.957031 -2.578125 16.296875 -1.796875 15.453125 -1.234375 C 14.617188 -0.671875 13.691406 -0.253906 12.671875 0.015625 C 11.660156 0.285156 10.566406 0.421875 9.390625 0.421875 C 8.367188 0.421875 7.367188 0.316406 6.390625 0.109375 C 5.421875 -0.0976562 4.601562 -0.351562 3.9375 -0.65625 C 3.28125 -0.96875 2.6875 -1.273438 2.15625 -1.578125 C 1.632812 -1.878906 1.253906 -2.132812 1.015625 -2.34375 L 0.640625 -2.65625 L 3.296875 -7.109375 C 3.523438 -6.921875 3.832031 -6.679688 4.21875 -6.390625 C 4.613281 -6.097656 5.316406 -5.707031 6.328125 -5.21875 C 7.335938 -4.726562 8.222656 -4.484375 8.984375 -4.484375 C 11.222656 -4.484375 12.34375 -5.242188 12.34375 -6.765625 C 12.34375 -7.085938 12.257812 -7.382812 12.09375 -7.65625 C 11.9375 -7.925781 11.65625 -8.195312 11.25 -8.46875 C 10.851562 -8.738281 10.5 -8.953125 10.1875 -9.109375 C 9.875 -9.273438 9.363281 -9.519531 8.65625 -9.84375 C 7.957031 -10.175781 7.441406 -10.425781 7.109375 -10.59375 C 5.691406 -11.289062 4.597656 -12.160156 3.828125 -13.203125 C 3.054688 -14.242188 2.671875 -15.367188 2.671875 -16.578125 C 2.671875 -18.660156 3.441406 -20.363281 4.984375 -21.6875 C 6.523438 -23.007812 8.285156 -23.671875 10.265625 -23.671875 Z M 10.265625 -23.671875 "/></g></g></g><g fill="#010101" fill-opacity="1"><g transform="translate(382.16059, 1046.092738)"><g><path d="M 15 -23.25 L 15 -18.609375 L 6.984375 -18.609375 L 6.984375 -13.984375 L 14.65625 -13.984375 L 14.65625 -9.328125 L 6.984375 -9.328125 L 6.984375 -4.65625 L 15 -4.65625 L 15 0 L 1.6875 0 L 1.6875 -23.25 Z M 15 -23.25 "/></g></g></g><g fill="#010101" fill-opacity="1"><g transform="translate(421.061664, 1046.092738)"><g><path d="M 1.6875 -23.25 L 10 -23.25 C 12.238281 -23.25 14.0625 -22.648438 15.46875 -21.453125 C 16.882812 -20.265625 17.59375 -18.5625 17.59375 -16.34375 C 17.59375 -14.632812 17.164062 -13.203125 16.3125 -12.046875 C 15.457031 -10.890625 14.296875 -10.078125 12.828125 -9.609375 L 20.828125 0 L 14.09375 0 L 6.984375 -9.1875 L 6.984375 0 L 1.6875 0 Z M 6.984375 -12.9375 L 7.609375 -12.9375 C 8.097656 -12.9375 8.507812 -12.945312 8.84375 -12.96875 C 9.1875 -12.988281 9.570312 -13.050781 10 -13.15625 C 10.4375 -13.269531 10.785156 -13.429688 11.046875 -13.640625 C 11.304688 -13.847656 11.53125 -14.148438 11.71875 -14.546875 C 11.914062 -14.941406 12.015625 -15.421875 12.015625 -15.984375 C 12.015625 -16.546875 11.914062 -17.023438 11.71875 -17.421875 C 11.53125 -17.816406 11.304688 -18.113281 11.046875 -18.3125 C 10.785156 -18.519531 10.4375 -18.679688 10 -18.796875 C 9.570312 -18.910156 9.1875 -18.976562 8.84375 -19 C 8.507812 -19.019531 8.097656 -19.03125 7.609375 -19.03125 L 6.984375 -19.03125 Z M 6.984375 -12.9375 "/></g></g></g><g fill="#010101" fill-opacity="1"><g transform="translate(463.795707, 1046.092738)"><g/></g></g><g fill="#010101" fill-opacity="1"><g transform="translate(494.044408, 1046.092738)"><g><path d="M 10.265625 -23.671875 C 11.523438 -23.671875 12.753906 -23.488281 13.953125 -23.125 C 15.148438 -22.757812 16.039062 -22.398438 16.625 -22.046875 L 17.46875 -21.484375 L 15.328125 -17.25 C 15.160156 -17.363281 14.925781 -17.507812 14.625 -17.6875 C 14.320312 -17.863281 13.757812 -18.101562 12.9375 -18.40625 C 12.113281 -18.707031 11.34375 -18.859375 10.625 -18.859375 C 9.738281 -18.859375 9.054688 -18.671875 8.578125 -18.296875 C 8.097656 -17.921875 7.859375 -17.410156 7.859375 -16.765625 C 7.859375 -16.453125 7.972656 -16.15625 8.203125 -15.875 C 8.429688 -15.601562 8.816406 -15.3125 9.359375 -15 C 9.898438 -14.695312 10.378906 -14.453125 10.796875 -14.265625 C 11.210938 -14.078125 11.851562 -13.796875 12.71875 -13.421875 C 14.21875 -12.773438 15.5 -11.898438 16.5625 -10.796875 C 17.625 -9.703125 18.15625 -8.460938 18.15625 -7.078125 C 18.15625 -5.742188 17.914062 -4.578125 17.4375 -3.578125 C 16.957031 -2.578125 16.296875 -1.796875 15.453125 -1.234375 C 14.617188 -0.671875 13.691406 -0.253906 12.671875 0.015625 C 11.660156 0.285156 10.566406 0.421875 9.390625 0.421875 C 8.367188 0.421875 7.367188 0.316406 6.390625 0.109375 C 5.421875 -0.0976562 4.601562 -0.351562 3.9375 -0.65625 C 3.28125 -0.96875 2.6875 -1.273438 2.15625 -1.578125 C 1.632812 -1.878906 1.253906 -2.132812 1.015625 -2.34375 L 0.640625 -2.65625 L 3.296875 -7.109375 C 3.523438 -6.921875 3.832031 -6.679688 4.21875 -6.390625 C 4.613281 -6.097656 5.316406 -5.707031 6.328125 -5.21875 C 7.335938 -4.726562 8.222656 -4.484375 8.984375 -4.484375 C 11.222656 -4.484375 12.34375 -5.242188 12.34375 -6.765625 C 12.34375 -7.085938 12.257812 -7.382812 12.09375 -7.65625 C 11.9375 -7.925781 11.65625 -8.195312 11.25 -8.46875 C 10.851562 -8.738281 10.5 -8.953125 10.1875 -9.109375 C 9.875 -9.273438 9.363281 -9.519531 8.65625 -9.84375 C 7.957031 -10.175781 7.441406 -10.425781 7.109375 -10.59375 C 5.691406 -11.289062 4.597656 -12.160156 3.828125 -13.203125 C 3.054688 -14.242188 2.671875 -15.367188 2.671875 -16.578125 C 2.671875 -18.660156 3.441406 -20.363281 4.984375 -21.6875 C 6.523438 -23.007812 8.285156 -23.671875 10.265625 -23.671875 Z M 10.265625 -23.671875 "/></g></g></g><g fill="#010101" fill-opacity="1"><g transform="translate(535.538392, 1046.092738)"><g><path d="M 6.984375 -23.25 L 6.984375 0 L 1.6875 0 L 1.6875 -23.25 Z M 6.984375 -23.25 "/></g></g></g><g fill="#010101" fill-opacity="1"><g transform="translate(566.773527, 1046.092738)"><g><path d="M 20.921875 0 L 19.8125 -13.78125 L 19.671875 -13.78125 L 14.90625 -0.140625 L 11.75 -0.140625 L 6.984375 -13.78125 L 6.84375 -13.78125 L 5.75 0 L 0.453125 0 L 2.53125 -23.25 L 8.171875 -23.25 L 13.328125 -9.84375 L 18.484375 -23.25 L 24.125 -23.25 L 26.21875 0 Z M 20.921875 0 "/></g></g></g><g fill="#010101" fill-opacity="1"><g transform="translate(615.989801, 1046.092738)"><g><path d="M 1.6875 -23.25 L 10.171875 -23.25 C 12.546875 -23.25 14.460938 -22.640625 15.921875 -21.421875 C 17.390625 -20.203125 18.125 -18.425781 18.125 -16.09375 C 18.125 -13.757812 17.378906 -11.929688 15.890625 -10.609375 C 14.410156 -9.285156 12.503906 -8.625 10.171875 -8.625 L 6.984375 -8.625 L 6.984375 0 L 1.6875 0 Z M 6.984375 -12.859375 L 8.484375 -12.859375 C 9.671875 -12.859375 10.644531 -13.097656 11.40625 -13.578125 C 12.164062 -14.054688 12.546875 -14.835938 12.546875 -15.921875 C 12.546875 -17.035156 12.164062 -17.832031 11.40625 -18.3125 C 10.644531 -18.789062 9.671875 -19.03125 8.484375 -19.03125 L 6.984375 -19.03125 Z M 6.984375 -12.859375 "/></g></g></g><g fill="#010101" fill-opacity="1"><g transform="translate(657.314642, 1046.092738)"><g><path d="M 6.984375 -23.25 L 6.984375 -4.65625 L 15 -4.65625 L 15 0 L 1.6875 0 L 1.6875 -23.25 Z M 6.984375 -23.25 "/></g></g></g><g fill="#010101" fill-opacity="1"><g transform="translate(695.792971, 1046.092738)"><g><path d="M 15 -23.25 L 15 -18.609375 L 6.984375 -18.609375 L 6.984375 -13.984375 L 14.65625 -13.984375 L 14.65625 -9.328125 L 6.984375 -9.328125 L 6.984375 -4.65625 L 15 -4.65625 L 15 0 L 1.6875 0 L 1.6875 -23.25 Z M 15 -23.25 "/></g></g></g><g fill="#010101" fill-opacity="1"><g transform="translate(734.694044, 1046.092738)"><g><path d="M 4.90625 -6.03125 C 5.800781 -6.03125 6.5625 -5.710938 7.1875 -5.078125 C 7.820312 -4.453125 8.140625 -3.691406 8.140625 -2.796875 C 8.140625 -1.910156 7.820312 -1.148438 7.1875 -0.515625 C 6.5625 0.109375 5.800781 0.421875 4.90625 0.421875 C 4.019531 0.421875 3.257812 0.109375 2.625 -0.515625 C 2 -1.148438 1.6875 -1.910156 1.6875 -2.796875 C 1.6875 -3.691406 2 -4.453125 2.625 -5.078125 C 3.257812 -5.710938 4.019531 -6.03125 4.90625 -6.03125 Z M 4.90625 -6.03125 "/></g></g></g><g fill="#010101" fill-opacity="1"><g transform="translate(767.084712, 1046.092738)"><g/></g></g><g fill="#010101" fill-opacity="1"><g transform="translate(797.333413, 1046.092738)"><g><path d="M 1.6875 -23.25 L 10 -23.25 C 12.238281 -23.25 14.0625 -22.648438 15.46875 -21.453125 C 16.882812 -20.265625 17.59375 -18.5625 17.59375 -16.34375 C 17.59375 -14.632812 17.164062 -13.203125 16.3125 -12.046875 C 15.457031 -10.890625 14.296875 -10.078125 12.828125 -9.609375 L 20.828125 0 L 14.09375 0 L 6.984375 -9.1875 L 6.984375 0 L 1.6875 0 Z M 6.984375 -12.9375 L 7.609375 -12.9375 C 8.097656 -12.9375 8.507812 -12.945312 8.84375 -12.96875 C 9.1875 -12.988281 9.570312 -13.050781 10 -13.15625 C 10.4375 -13.269531 10.785156 -13.429688 11.046875 -13.640625 C 11.304688 -13.847656 11.53125 -14.148438 11.71875 -14.546875 C 11.914062 -14.941406 12.015625 -15.421875 12.015625 -15.984375 C 12.015625 -16.546875 11.914062 -17.023438 11.71875 -17.421875 C 11.53125 -17.816406 11.304688 -18.113281 11.046875 -18.3125 C 10.785156 -18.519531 10.4375 -18.679688 10 -18.796875 C 9.570312 -18.910156 9.1875 -18.976562 8.84375 -19 C 8.507812 -19.019531 8.097656 -19.03125 7.609375 -19.03125 L 6.984375 -19.03125 Z M 6.984375 -12.9375 "/></g></g></g><g fill="#010101" fill-opacity="1"><g transform="translate(840.067479, 1046.092738)"><g><path d="M 15 -23.25 L 15 -18.609375 L 6.984375 -18.609375 L 6.984375 -13.984375 L 14.65625 -13.984375 L 14.65625 -9.328125 L 6.984375 -9.328125 L 6.984375 -4.65625 L 15 -4.65625 L 15 0 L 1.6875 0 L 1.6875 -23.25 Z M 15 -23.25 "/></g></g></g><g fill="#010101" fill-opacity="1"><g transform="translate(878.968507, 1046.092738)"><g><path d="M 14.0625 -4.796875 C 14.875 -4.796875 15.660156 -4.914062 16.421875 -5.15625 C 17.179688 -5.40625 17.738281 -5.640625 18.09375 -5.859375 L 18.625 -6.234375 L 20.890625 -1.71875 C 20.816406 -1.664062 20.710938 -1.59375 20.578125 -1.5 C 20.441406 -1.40625 20.132812 -1.226562 19.65625 -0.96875 C 19.175781 -0.71875 18.664062 -0.5 18.125 -0.3125 C 17.582031 -0.125 16.867188 0.0390625 15.984375 0.1875 C 15.097656 0.34375 14.1875 0.421875 13.25 0.421875 C 11.082031 0.421875 9.03125 -0.109375 7.09375 -1.171875 C 5.164062 -2.234375 3.609375 -3.691406 2.421875 -5.546875 C 1.234375 -7.410156 0.640625 -9.421875 0.640625 -11.578125 C 0.640625 -13.210938 0.988281 -14.78125 1.6875 -16.28125 C 2.382812 -17.789062 3.3125 -19.082031 4.46875 -20.15625 C 5.625 -21.226562 6.972656 -22.082031 8.515625 -22.71875 C 10.054688 -23.351562 11.632812 -23.671875 13.25 -23.671875 C 14.75 -23.671875 16.132812 -23.492188 17.40625 -23.140625 C 18.675781 -22.785156 19.570312 -22.429688 20.09375 -22.078125 L 20.890625 -21.53125 L 18.625 -17.03125 C 18.5 -17.132812 18.300781 -17.265625 18.03125 -17.421875 C 17.769531 -17.585938 17.242188 -17.800781 16.453125 -18.0625 C 15.671875 -18.332031 14.875 -18.46875 14.0625 -18.46875 C 12.789062 -18.46875 11.644531 -18.257812 10.625 -17.84375 C 9.613281 -17.425781 8.8125 -16.878906 8.21875 -16.203125 C 7.625 -15.523438 7.171875 -14.796875 6.859375 -14.015625 C 6.554688 -13.242188 6.40625 -12.453125 6.40625 -11.640625 C 6.40625 -9.867188 7.066406 -8.285156 8.390625 -6.890625 C 9.710938 -5.492188 11.601562 -4.796875 14.0625 -4.796875 Z M 14.0625 -4.796875 "/></g></g></g><g fill="#010101" fill-opacity="1"><g transform="translate(922.745359, 1046.092738)"><g><path d="M 15 -23.25 L 15 -18.609375 L 6.984375 -18.609375 L 6.984375 -13.984375 L 14.65625 -13.984375 L 14.65625 -9.328125 L 6.984375 -9.328125 L 6.984375 -4.65625 L 15 -4.65625 L 15 0 L 1.6875 0 L 1.6875 -23.25 Z M 15 -23.25 "/></g></g></g><g fill="#010101" fill-opacity="1"><g transform="translate(961.646479, 1046.092738)"><g><path d="M 8.96875 0 L -0.796875 -23.25 L 5.1875 -23.25 L 11.046875 -7.984375 L 16.90625 -23.25 L 22.890625 -23.25 L 13.140625 0 Z M 8.96875 0 "/></g></g></g><g fill="#010101" fill-opacity="1"><g transform="translate(1006.296927, 1046.092738)"><g><path d="M 0.640625 -11.640625 C 0.640625 -15.003906 1.785156 -17.847656 4.078125 -20.171875 C 6.378906 -22.503906 9.144531 -23.671875 12.375 -23.671875 C 15.625 -23.671875 18.382812 -22.507812 20.65625 -20.1875 C 22.9375 -17.875 24.078125 -15.023438 24.078125 -11.640625 C 24.078125 -8.242188 22.957031 -5.382812 20.71875 -3.0625 C 18.476562 -0.738281 15.695312 0.421875 12.375 0.421875 C 8.96875 0.421875 6.160156 -0.726562 3.953125 -3.03125 C 1.742188 -5.332031 0.640625 -8.203125 0.640625 -11.640625 Z M 6.375 -11.640625 C 6.375 -10.421875 6.5625 -9.304688 6.9375 -8.296875 C 7.3125 -7.296875 7.96875 -6.445312 8.90625 -5.75 C 9.84375 -5.050781 11 -4.703125 12.375 -4.703125 C 14.34375 -4.703125 15.828125 -5.378906 16.828125 -6.734375 C 17.835938 -8.085938 18.34375 -9.722656 18.34375 -11.640625 C 18.34375 -13.535156 17.832031 -15.164062 16.8125 -16.53125 C 15.789062 -17.894531 14.3125 -18.578125 12.375 -18.578125 C 10.457031 -18.578125 8.976562 -17.894531 7.9375 -16.53125 C 6.894531 -15.164062 6.375 -13.535156 6.375 -11.640625 Z M 6.375 -11.640625 "/></g></g></g><g fill="#010101" fill-opacity="1"><g transform="translate(1053.56853, 1046.092738)"><g><path d="M 6.984375 -23.25 L 6.984375 0 L 1.6875 0 L 1.6875 -23.25 Z M 6.984375 -23.25 "/></g></g></g><g fill="#010101" fill-opacity="1"><g transform="translate(1084.803665, 1046.092738)"><g><path d="M 1.6875 -23.25 L 10 -23.25 C 12.238281 -23.25 14.0625 -22.648438 15.46875 -21.453125 C 16.882812 -20.265625 17.59375 -18.5625 17.59375 -16.34375 C 17.59375 -14.632812 17.164062 -13.203125 16.3125 -12.046875 C 15.457031 -10.890625 14.296875 -10.078125 12.828125 -9.609375 L 20.828125 0 L 14.09375 0 L 6.984375 -9.1875 L 6.984375 0 L 1.6875 0 Z M 6.984375 -12.9375 L 7.609375 -12.9375 C 8.097656 -12.9375 8.507812 -12.945312 8.84375 -12.96875 C 9.1875 -12.988281 9.570312 -13.050781 10 -13.15625 C 10.4375 -13.269531 10.785156 -13.429688 11.046875 -13.640625 C 11.304688 -13.847656 11.53125 -14.148438 11.71875 -14.546875 C 11.914062 -14.941406 12.015625 -15.421875 12.015625 -15.984375 C 12.015625 -16.546875 11.914062 -17.023438 11.71875 -17.421875 C 11.53125 -17.816406 11.304688 -18.113281 11.046875 -18.3125 C 10.785156 -18.519531 10.4375 -18.679688 10 -18.796875 C 9.570312 -18.910156 9.1875 -18.976562 8.84375 -19 C 8.507812 -19.019531 8.097656 -19.03125 7.609375 -19.03125 L 6.984375 -19.03125 Z M 6.984375 -12.9375 "/></g></g></g><g fill="#010101" fill-opacity="1"><g transform="translate(1127.537732, 1046.092738)"><g/></g></g><g fill="#010101" fill-opacity="1"><g transform="translate(1157.786478, 1046.092738)"><g><path d="M 10.265625 -23.671875 C 11.523438 -23.671875 12.753906 -23.488281 13.953125 -23.125 C 15.148438 -22.757812 16.039062 -22.398438 16.625 -22.046875 L 17.46875 -21.484375 L 15.328125 -17.25 C 15.160156 -17.363281 14.925781 -17.507812 14.625 -17.6875 C 14.320312 -17.863281 13.757812 -18.101562 12.9375 -18.40625 C 12.113281 -18.707031 11.34375 -18.859375 10.625 -18.859375 C 9.738281 -18.859375 9.054688 -18.671875 8.578125 -18.296875 C 8.097656 -17.921875 7.859375 -17.410156 7.859375 -16.765625 C 7.859375 -16.453125 7.972656 -16.15625 8.203125 -15.875 C 8.429688 -15.601562 8.816406 -15.3125 9.359375 -15 C 9.898438 -14.695312 10.378906 -14.453125 10.796875 -14.265625 C 11.210938 -14.078125 11.851562 -13.796875 12.71875 -13.421875 C 14.21875 -12.773438 15.5 -11.898438 16.5625 -10.796875 C 17.625 -9.703125 18.15625 -8.460938 18.15625 -7.078125 C 18.15625 -5.742188 17.914062 -4.578125 17.4375 -3.578125 C 16.957031 -2.578125 16.296875 -1.796875 15.453125 -1.234375 C 14.617188 -0.671875 13.691406 -0.253906 12.671875 0.015625 C 11.660156 0.285156 10.566406 0.421875 9.390625 0.421875 C 8.367188 0.421875 7.367188 0.316406 6.390625 0.109375 C 5.421875 -0.0976562 4.601562 -0.351562 3.9375 -0.65625 C 3.28125 -0.96875 2.6875 -1.273438 2.15625 -1.578125 C 1.632812 -1.878906 1.253906 -2.132812 1.015625 -2.34375 L 0.640625 -2.65625 L 3.296875 -7.109375 C 3.523438 -6.921875 3.832031 -6.679688 4.21875 -6.390625 C 4.613281 -6.097656 5.316406 -5.707031 6.328125 -5.21875 C 7.335938 -4.726562 8.222656 -4.484375 8.984375 -4.484375 C 11.222656 -4.484375 12.34375 -5.242188 12.34375 -6.765625 C 12.34375 -7.085938 12.257812 -7.382812 12.09375 -7.65625 C 11.9375 -7.925781 11.65625 -8.195312 11.25 -8.46875 C 10.851562 -8.738281 10.5 -8.953125 10.1875 -9.109375 C 9.875 -9.273438 9.363281 -9.519531 8.65625 -9.84375 C 7.957031 -10.175781 7.441406 -10.425781 7.109375 -10.59375 C 5.691406 -11.289062 4.597656 -12.160156 3.828125 -13.203125 C 3.054688 -14.242188 2.671875 -15.367188 2.671875 -16.578125 C 2.671875 -18.660156 3.441406 -20.363281 4.984375 -21.6875 C 6.523438 -23.007812 8.285156 -23.671875 10.265625 -23.671875 Z M 10.265625 -23.671875 "/></g></g></g><g fill="#010101" fill-opacity="1"><g transform="translate(1199.28037, 1046.092738)"><g><path d="M 4.25 -27.90625 L 10.484375 -32.46875 L 16.71875 -27.90625 L 14.796875 -25.34375 L 10.484375 -28.5 L 6.171875 -25.34375 Z M 14.265625 -23.25 L 14.265625 -9.8125 C 14.265625 -7.925781 13.96875 -6.617188 13.375 -5.890625 C 12.78125 -5.160156 11.816406 -4.796875 10.484375 -4.796875 C 9.148438 -4.796875 8.1875 -5.160156 7.59375 -5.890625 C 7 -6.617188 6.703125 -7.925781 6.703125 -9.8125 L 6.703125 -23.25 L 1.40625 -23.25 L 1.40625 -8.265625 C 1.40625 -5.398438 2.175781 -3.234375 3.71875 -1.765625 C 5.257812 -0.304688 7.515625 0.421875 10.484375 0.421875 C 13.453125 0.421875 15.707031 -0.304688 17.25 -1.765625 C 18.789062 -3.234375 19.5625 -5.398438 19.5625 -8.265625 L 19.5625 -23.25 Z M 14.265625 -23.25 "/></g></g></g><g fill="#010101" fill-opacity="1"><g transform="translate(1242.803621, 1046.092738)"><g><path d="M 1.6875 -23.25 L 10 -23.25 C 12.238281 -23.25 14.0625 -22.648438 15.46875 -21.453125 C 16.882812 -20.265625 17.59375 -18.5625 17.59375 -16.34375 C 17.59375 -14.632812 17.164062 -13.203125 16.3125 -12.046875 C 15.457031 -10.890625 14.296875 -10.078125 12.828125 -9.609375 L 20.828125 0 L 14.09375 0 L 6.984375 -9.1875 L 6.984375 0 L 1.6875 0 Z M 6.984375 -12.9375 L 7.609375 -12.9375 C 8.097656 -12.9375 8.507812 -12.945312 8.84375 -12.96875 C 9.1875 -12.988281 9.570312 -13.050781 10 -13.15625 C 10.4375 -13.269531 10.785156 -13.429688 11.046875 -13.640625 C 11.304688 -13.847656 11.53125 -14.148438 11.71875 -14.546875 C 11.914062 -14.941406 12.015625 -15.421875 12.015625 -15.984375 C 12.015625 -16.546875 11.914062 -17.023438 11.71875 -17.421875 C 11.53125 -17.816406 11.304688 -18.113281 11.046875 -18.3125 C 10.785156 -18.519531 10.4375 -18.679688 10 -18.796875 C 9.570312 -18.910156 9.1875 -18.976562 8.84375 -19 C 8.507812 -19.019531 8.097656 -19.03125 7.609375 -19.03125 L 6.984375 -19.03125 Z M 6.984375 -12.9375 "/></g></g></g></svg>